<?xml version="1.0" ?><svg height="30" width="30" viewBox="0 0 64 64" xmlns="http://www.w3.org/2000/svg"><defs
><style>.cls-1{fill:none;stroke:#7e7e7e;stroke-linecap:round;stroke-linejoin:round;stroke-width:2px;}</style>
</defs><title/><g data-name="Layer 6" id="Layer_6">
<path class="cls-1" d="M50.59,17.15V46.23A4.64,4.64,0,0,1,46,50.86H17.38a4.64,4.64,0,0,1-4.62-4.62V17.15a4.64,4.64,0,0,1,4.62-4.62H46"/>
<circle cx="50.64" cy="13.82" r="1" fill="#7E7E7E"/>
<path class="cls-1" d="M31.23,35.38A4.39,4.39,0,0,1,29.65,39l-.15.13A7.52,7.52,0,0,1,25,40.23H18.58V23.49h6.3q3.61,0,4.91,2.07a4.14,4.14,0,0,1,.65,2.2,3.74,3.74,0,0,1-2.34,3.55A3.93,3.93,0,0,1,31.23,35.38Z"/>
<path class="cls-1" d="M24.27,26.59H22.11v3.24h2.33a5.37,5.37,0,0,0,1.36-.12,1.41,1.41,0,0,0,1.1-1.47"/>
<path class="cls-1" d="M24.56,33.34H22.11V37h2.63a6.46,6.46,0,0,0,1,0A1.78,1.78,0,0,0,27,36a1.83,1.83,0,0,0,.21-.89"/>
<path class="cls-1" d="M45,37.81q-1.32,2.7-4.87,2.7a5.46,5.46,0,0,1-4.33-1.75,6.59,6.59,0,0,1-1.46-4.49,7,7,0,0,1,1.41-4.56A5.2,5.2,0,0,1,40,27.83a5,5,0,0,1,4.15,1.85,6.91,6.91,0,0,1,1.37,4.45c0,.12,0,.31,0,.56H38.43"/>
<line class="cls-1" x1="44.97" x2="41.71" y1="37.81" y2="37.81"/>
<path class="cls-1" d="M39.91,30.63h0a1.45,1.45,0,0,0-1.45,1.45v.17"/>
<line class="cls-1" x1="36.04" x2="43.8" y1="24.77" y2="24.77"/></g></svg>
